<svg width="1334" height="828" viewBox="0 0 1334 828" xmlns="http://www.w3.org/2000/svg" xmlns:xlink="http://www.w3.org/1999/xlink"><title>footer-bg-1</title><defs><path id="a" d="M.518.518h195.64v195.64H.518z"/><path id="c" d="M0 0h34v34H0z"/><ellipse id="e" cx="18.5" cy="18.5" rx="18.5" ry="18.5"/><ellipse id="g" cx="9.5" cy="9.5" rx="9.5" ry="9.5"/><circle id="i" cx="69.5" cy="69.5" r="69.5"/></defs><g fill="none" fill-rule="evenodd"><g stroke="#F88664" stroke-width="8"><path d="M263.97 84.166l-.234 26.034-.597.006.239-26.518h.113l.001-.114 26.518-.239-.006.597-26.034.234zm52.326-52.326l-.234 26.034-.597.006.239-26.518h.113l.001-.114 26.517-.238-.005.596-26.034.234z"/><path d="M290.133 58.003l-.234 26.034-.597.006.239-26.518h.113l.001-.114 26.518-.238-.006.596-26.034.234zM343.166 4.97l-.234 26.034-.597.006.239-26.518h.113l.001-.114 26.518-.239-.006.597-26.034.234z"/></g><g transform="rotate(-45 631.36 262.555)" opacity=".2"><mask id="b" fill="#fff"><use xlink:href="#a"/></mask><path stroke="#454757" stroke-width="16" fill="#454757" fill-rule="nonzero" mask="url(#b)" d="M.518.518h195.64v195.64H.518z"/></g><g transform="rotate(-90 514 314)"><mask id="d" fill="#fff"><use xlink:href="#c"/></mask><path stroke="#F88664" stroke-width="16" mask="url(#d)" d="M0 0h34v34H0z"/></g><path d="M1185.812 144.49a16.929 16.929 0 0 0-10.318 7.913c-4.691 8.125-1.903 18.517 6.228 23.212 8.132 4.694 18.526 1.913 23.217-6.212a16.929 16.929 0 0 0 1.694-12.893" stroke="#7071AE" stroke-width="12.8"/><g transform="translate(320 374)"><mask id="f" fill="#fff"><use xlink:href="#e"/></mask><ellipse stroke="#F7D573" stroke-width="16" mask="url(#f)" cx="18.5" cy="18.5" rx="18.5" ry="18.5"/></g><g transform="translate(145 540)"><mask id="h" fill="#fff"><use xlink:href="#g"/></mask><ellipse stroke="#F7D573" stroke-width="16" fill="#F7D573" fill-rule="nonzero" mask="url(#h)" cx="9.5" cy="9.5" rx="9.5" ry="9.5"/></g><g transform="translate(1092 626)"><ellipse fill="#7071AE" fill-rule="nonzero" cx="79.5" cy="42.5" rx="9.5" ry="9.5"/><g transform="translate(0 63)" opacity=".2"><mask id="j" fill="#fff"><use xlink:href="#i"/></mask><circle stroke="#454757" stroke-width="16" fill="#454757" fill-rule="nonzero" mask="url(#j)" cx="69.5" cy="69.5" r="69.5"/></g><ellipse fill="#F88664" fill-rule="nonzero" cx="190.5" cy="51.5" rx="51.5" ry="51.5"/></g></g></svg>