<svg width="367" height="236" viewBox="0 0 367 236" xmlns="http://www.w3.org/2000/svg" xmlns:xlink="http://www.w3.org/1999/xlink"><title>Group 22 Copy</title><defs><path d="M268.046 166.154l62.666 71.85-146.36-71.85H27.711C12.408 166.154 0 153.734 0 138.437V27.717C0 12.409 12.412 0 27.713 0h296.574C339.593 0 352 12.42 352 27.717v110.72c0 15.308-12.412 27.717-27.713 27.717h-56.241zM81.46 69.13V53.61l14.513-23.545H82.689l-7.14 13.178-7.256-13.178H55.009l14.63 23.545v15.52h11.82zm30.313.703c10.065 0 15.917-6.97 15.917-14.876 0-7.907-5.852-14.818-15.917-14.818-10.007 0-15.859 6.91-15.859 14.818 0 7.906 5.852 14.876 15.859 14.876zm49.45-.703V40.842h-10.534v17.453c-.878.996-2.107 2.226-4.448 2.226-2.575 0-4.096-1.113-4.096-3.983V40.842H131.61v20.206c0 4.861 2.81 8.785 9.363 8.785 4.975 0 8.076-2.05 9.715-3.865v3.162h10.533zm17.79-32.095c0-4.803-3.22-7.556-6.789-7.556-3.277 0-6.086 2.753-6.086 6.15 0 3.28 2.282 5.447 5.091 5.447.644 0 1.23-.117 1.522-.234-.76 2.225-3.453 4.802-5.325 5.622l4.271 3.456c4.565-3.222 7.315-7.731 7.315-12.885zm15.04 32.095V51.794c1.17-1.406 4.037-1.991 6.26-1.991.996 0 1.873.117 2.4.292V40.022c-3.219 0-6.905 1.874-8.66 3.924v-3.104h-10.534V69.13h10.533zm26.1.703c4.212 0 9.245-1.113 12.054-3.514l-4.33-6.501c-1.405 1.23-4.916 1.991-6.496 1.991-3.453 0-5.5-1.757-6.086-3.572h19.194v-2.168c0-9.956-6.378-15.93-14.688-15.93-9.13 0-15.39 6.618-15.39 14.818 0 9.312 6.905 14.876 15.741 14.876zm59.748-.703V52.028c0-9.43-6.847-11.89-13.87-11.89-4.271 0-9.538 1.23-13.342 4.276l3.57 6.501c2.224-1.698 5.208-2.752 7.842-2.752 3.452 0 5.266 1.522 5.266 3.514v2.928c-1.521-1.933-4.857-3.104-8.544-3.104-4.213 0-9.714 1.991-9.714 9.02 0 6.442 5.501 9.312 9.714 9.312 3.512 0 6.964-1.405 8.544-3.397v2.694h10.534zM72.916 125.32c6.437 0 10.416-2.988 11.996-5.33l-6.788-6.443a5.687 5.687 0 0 1-4.74 2.46c-2.985 0-5.56-1.933-5.56-5.564 0-3.631 2.575-5.506 5.56-5.506 2.224 0 3.862 1.055 4.74 2.402l6.788-6.384c-1.58-2.402-5.56-5.33-11.996-5.33-8.954 0-15.86 5.857-15.86 14.818 0 9.02 6.906 14.876 15.86 14.876zm45.06-.703v-28.29h-10.533v17.454c-.878.996-2.107 2.226-4.448 2.226-2.575 0-4.096-1.113-4.096-3.983V96.328H88.365v20.206c0 4.861 2.809 8.785 9.363 8.785 4.974 0 8.076-2.05 9.715-3.865v3.163h10.533zm35.522 0v-20.09c0-4.92-2.868-8.902-9.422-8.902-4.974 0-8.076 2.05-9.714 3.924v-3.221h-10.534v28.289h10.534v-17.454c.878-.996 2.106-2.226 4.506-2.226 2.516 0 4.096 1.113 4.096 4.042v15.638h10.534zm17.731.702c3.57 0 6.028-.878 7.14-1.874l-1.873-7.965c-.234.234-1.17.527-2.107.527-1.404 0-2.34-1.171-2.34-2.636v-7.906h5.735v-9.137h-5.735v-7.731h-10.534v7.73h-4.682v9.138h4.682v10.952c0 5.915 3.453 8.902 9.714 8.902zm30.665-31.041a5.897 5.897 0 0 0 5.91-5.916 5.897 5.897 0 0 0-5.91-5.915 5.897 5.897 0 0 0-5.91 5.915 5.897 5.897 0 0 0 5.91 5.916zm5.267 30.339v-28.29h-10.534v28.29h10.534zm18.55 0v-19.152h5.735v-9.137h-5.735v-1.289c0-1.405 1.346-2.284 2.634-2.284 1.229 0 1.99.352 2.633 1.113l3.804-5.857c-1.99-2.108-5.56-3.046-8.836-3.046-6.262 0-10.768 4.159-10.768 10.074v1.289h-4.682v9.137h4.682v19.152h10.533zm20.541-5.564c0-3.397-2.809-6.267-6.203-6.267s-6.203 2.87-6.203 6.267c0 3.338 2.809 6.208 6.203 6.208s6.203-2.87 6.203-6.208zm16.503 0c0-3.397-2.81-6.267-6.204-6.267-3.394 0-6.203 2.87-6.203 6.267 0 3.338 2.81 6.208 6.203 6.208 3.395 0 6.204-2.87 6.204-6.208zm16.502 0c0-3.397-2.809-6.267-6.203-6.267s-6.203 2.87-6.203 6.267c0 3.338 2.809 6.208 6.203 6.208s6.203-2.87 6.203-6.208z" id="a"/></defs><use fill="#FFF" xlink:href="#a" transform="rotate(-9 328.621 48.91)" fill-rule="evenodd"/></svg>