<svg width="149" height="54" viewBox="0 0 149 54" xmlns="http://www.w3.org/2000/svg"><title>Group 21</title><g fill="#FFF" fill-rule="evenodd"><path d="M27 6.42C15.652 6.42 6.42 15.652 6.42 27c0 11.348 9.232 20.58 20.58 20.58 11.348 0 20.58-9.232 20.58-20.58 0-11.348-9.232-20.58-20.58-20.58M27 54C12.112 54 0 41.888 0 27S12.112 0 27 0s27 12.112 27 27-12.112 27-27 27"/><path d="M36.53 35.534l-4.145-4.145c-1.7 1.732-3.501 2.718-5.676 2.718-1.869 0-3.058-.952-3.058-2.413v-.068c0-1.529 1.393-2.447 3.874-2.447h2.786l.952-3.432-5.471-4.928h9.107v-5.336H17.703v4.725l5.675 4.86c-3.398.747-6.15 2.65-6.15 6.694v.068c0 4.826 3.874 7.918 9.175 7.918 4.588 0 7.816-1.665 10.127-4.214m42.588-.227c1.46 0 2.432-.358 2.919-.819l-.768-2.97c-.128.154-.563.308-.999.308-.665 0-1.075-.538-1.075-1.255V26.04h2.509v-3.405h-2.509v-3.379h-3.942v3.38h-2.048v3.404h2.048v5.632c0 2.38 1.357 3.635 3.865 3.635zM87.592 35v-7.885c.512-.691 1.869-1.126 2.893-1.126.41 0 .742.025.973.102v-3.789c-1.46 0-3.047.845-3.866 1.844v-1.51H83.65V35h3.942zm11.597.307c1.894 0 3.942-.537 5.171-1.638l-1.715-2.586c-.717.666-2.15 1.05-3.021 1.05-1.792 0-2.816-.922-3.098-2.023h8.807v-.896c0-4.198-2.663-6.886-6.323-6.886-3.866 0-6.554 2.893-6.554 6.477 0 4.019 2.918 6.502 6.733 6.502zm2.38-7.885h-5.094c.154-.896.82-1.92 2.535-1.92 1.817 0 2.457 1.05 2.56 1.92zM112.067 35v-8.96h2.508v-3.405h-2.508v-.281c0-1.024.588-1.51 1.305-1.51.563 0 .973.153 1.28.434l1.434-2.457c-.82-.768-2.202-1.152-3.533-1.152-2.586 0-4.429 1.74-4.429 4.685v.281h-2.048v3.405h2.048V35h3.943zm10.06.307c4.25 0 6.759-3.02 6.759-6.502 0-3.482-2.509-6.477-6.759-6.477-4.198 0-6.707 2.995-6.707 6.477 0 3.481 2.509 6.502 6.707 6.502zm0-3.481c-1.69 0-2.662-1.357-2.662-3.021 0-1.639.973-2.995 2.662-2.995 1.741 0 2.714 1.356 2.714 2.995 0 1.664-.973 3.02-2.714 3.02zm10.804-10.292a2.283 2.283 0 0 0 2.278-2.278c0-1.254-1.024-2.253-2.278-2.253a2.24 2.24 0 0 0-2.253 2.253c0 1.254.998 2.278 2.253 2.278zM134.9 35V22.635h-3.942V35h3.943zm6.81 0V17.925h-3.942V35h3.942zm4.89.282c1.306 0 2.406-1.101 2.406-2.407 0-1.28-1.1-2.38-2.406-2.38s-2.432 1.1-2.432 2.38c0 1.306 1.126 2.407 2.432 2.407z"/></g></svg>