<?xml version="1.0" encoding="UTF-8"?>
<svg width="191px" height="53px" viewBox="0 0 191 53" version="1.1" xmlns="http://www.w3.org/2000/svg" xmlns:xlink="http://www.w3.org/1999/xlink">
    <!-- Generator: Sketch 41.1 (35376) - http://www.bohemiancoding.com/sketch -->
    <title>Group 9</title>
    <desc>Created with Sketch.</desc>
    <defs>
        <polygon id="path-1" points="190.986 -7.10542736e-15 190.986 52.6408 0 52.6408 0 -7.10542736e-15 190.986 0"></polygon>
    </defs>
    <g id="Page-1" stroke="none" stroke-width="1" fill="none" fill-rule="evenodd">
        <g id="Group-9">
            <g id="Page-1">
                <mask id="mask-2" fill="white">
                    <use xlink:href="#path-1"></use>
                </mask>
                <g id="Clip-2"></g>
                <path d="M34.8287,19.313 C34.8367,8.017 26.9377,0.021 13.8897,0.01 L0.0287,0 L-0.0003,38.572 L13.9147,38.583 C26.9097,38.593 34.8207,30.609 34.8287,19.313 L34.8287,19.313 Z M26.0037,19.306 C25.9967,28.012 19.8227,31.093 14.4087,31.089 L8.9387,31.085 L8.9567,7.501 L14.4257,7.505 C19.8397,7.509 26.0097,10.6 26.0037,19.306 L26.0037,19.306 Z M37.5407,12.482 L37.5207,38.601 L46.1837,38.607 L46.1967,21.416 C46.1967,21.416 47.9307,20.204 50.7997,20.207 C52.6407,20.208 54.6977,20.706 56.1597,21.423 L56.1657,12.938 C54.7587,12.22 53.0797,11.943 51.5637,11.942 C49.0737,11.94 46.7447,12.655 44.9567,14.031 L37.5407,12.482 Z M81.2477,22.709 C81.2527,16.648 78.9827,11.963 70.5357,11.956 C67.3947,11.954 62.4677,12.611 59.2177,14.207 L59.2127,21.59 C62.5167,20.05 66.9027,19.227 69.1767,19.229 C71.3427,19.23 72.9117,19.948 72.9107,21.821 L72.9097,22.868 L68.0367,22.865 C59.9697,22.858 57.3687,26.328 57.3647,31.067 C57.3597,37.349 61.9607,39.391 66.6707,39.395 C69.4867,39.396 72.3027,38.683 73.8197,37.361 L81.2347,40.29 L81.2477,22.709 Z M72.9577,31.905 C71.6577,33.006 70.0327,33.556 68.6247,33.555 C66.9467,33.554 65.6477,32.727 65.6487,30.963 C65.6497,29.089 67.1127,28.264 68.4117,28.265 L72.9597,28.269 L72.9577,31.905 Z M94.0137,39.415 C96.7207,39.417 98.5617,38.813 100.3497,37.822 L100.3487,39.53 C100.3467,42.12 98.8287,44.984 94.0097,44.98 C91.0317,44.979 87.5677,43.874 83.8877,41.502 L83.8807,50.538 C87.1277,52.14 92.0007,52.639 94.8707,52.641 C105.5367,52.649 109.0607,45.819 109.0667,38.49 L109.0857,12.757 L100.4227,12.751 L100.4097,30.825 C99.3797,31.706 97.6467,32.254 96.1307,32.253 C93.3147,32.251 92.3967,30.267 92.3977,28.174 L92.4097,12.744 L83.7457,12.738 L83.7337,29.434 C83.7297,35.054 86.7037,39.41 94.0137,39.415 L94.0137,39.415 Z M131.8947,29.967 C130.3237,30.958 128.2107,31.342 127.0207,31.341 C125.1797,31.339 124.7457,30.457 124.7467,29.521 L124.7547,19.933 L131.3607,19.938 L131.3657,12.774 L124.7597,12.769 L124.7667,2.96 L116.0477,6.15 L116.0427,12.763 L111.9277,12.759 L111.9227,19.923 L116.0367,19.926 L116.0297,30.175 C116.0257,35.575 118.2977,39.049 124.7407,39.054 C127.8807,39.056 130.5887,38.231 131.8887,37.405 L131.8947,29.967 Z M143.2617,25.732 C143.2647,22.041 145.1077,19.066 148.8437,19.069 C152.5787,19.072 154.4177,22.049 154.4157,25.741 C154.4127,29.488 152.5697,32.407 148.8337,32.404 C145.0977,32.401 143.2597,29.425 143.2617,25.732 L143.2617,25.732 Z M163.0787,25.748 C163.0837,18.254 157.6737,12.023 148.8487,12.016 C140.0237,12.009 134.6047,18.231 134.5987,25.726 C134.5937,33.275 140.0027,39.45 148.8287,39.457 C157.6547,39.465 163.0737,33.241 163.0787,25.748 L163.0787,25.748 Z M190.9737,38.719 L190.9867,22.022 C190.9907,16.402 187.9077,12.046 180.4357,12.041 C176.7537,12.038 174.2627,13.083 172.6917,14.128 L165.6547,12.58 L165.6347,38.698 L174.2977,38.706 L174.3107,20.631 C175.3397,20.082 176.9107,19.531 178.4267,19.532 C180.8087,19.534 182.3247,20.914 182.3227,23.172 L182.3107,38.712 L190.9737,38.719 Z" id="Fill-1" fill="#000000" mask="url(#mask-2)"></path>
            </g>
        </g>
    </g>
</svg>