<svg width="2592" height="965" viewBox="0 0 2592 965" xmlns="http://www.w3.org/2000/svg" xmlns:xlink="http://www.w3.org/1999/xlink"><title>Group 2</title><defs><path id="a" d="M8.042 8.042h34v34h-34z"/><path id="b" d="M8.042 8.042h34v34h-34z"/><path id="c" d="M.569.892h205.54v205.54H.569z"/><path id="e" d="M.042.042h34v34h-34z"/><circle id="g" cx="18.5" cy="18.5" r="18.5"/><circle id="i" cx="9.5" cy="9.5" r="9.5"/><circle id="k" cx="108" cy="108" r="108"/></defs><g transform="translate(-43 -148)" fill="none" fill-rule="evenodd"><path d="M1740 341.042L1764.042 317l24.042 24.042-24.042 24.042z" stroke-width="16" stroke="#7071AE"/><path d="M2575 855.042L2599.042 831l24.042 24.042-24.042 24.042z" stroke-width="16" stroke="#F88664"/><path fill="#2E2F3B" d="M681 475.339L819.337 337l138.339 138.34-138.338 138.337zM2297 920.339L2435.337 782l138.339 138.34-138.338 138.337z"/><path fill="#F7D573" d="M1525 1005.323L1593.322 937l68.323 68.323-68.323 68.323z"/><g transform="translate(723)"><mask id="d" fill="#fff"><use xlink:href="#c"/></mask><g mask="url(#d)" stroke-width="52.8" stroke="#2E2F3B"><path d="M551 103.662L696.34-41.677l145.338 145.339L696.34 249z"/></g></g><g transform="translate(860 880)"><mask id="f" fill="#fff"><use xlink:href="#e"/></mask><g mask="url(#f)" stroke-width="16" stroke="#F88664"><path d="M.042 34.042v-34h34v34z"/></g></g><path d="M968.867 782.49a16.929 16.929 0 0 0-10.318 7.913c-4.691 8.125-1.903 18.517 6.229 23.212 8.13 4.694 18.525 1.913 23.216-6.212a16.929 16.929 0 0 0 1.694-12.893" stroke="#7071AE" stroke-width="12.8"/><g stroke="#F7D573" stroke-width="8"><path d="M1344 862.757L1325.426 881l-.426-.418L1343.92 862l.08.08.08-.08 18.92 18.582-.426.418L1344 862.757zm74 0L1399.426 881l-.426-.418L1417.92 862l.08.08.08-.08 18.92 18.582-.426.418L1418 862.757z"/><path d="M1381 862.757L1362.426 881l-.426-.418L1380.92 862l.08.08.08-.08 18.92 18.582-.426.418L1381 862.757zm75 0L1437.426 881l-.426-.418L1455.92 862l.08.08.08-.08 18.92 18.582-.426.418L1456 862.757z"/></g><g stroke="#F88664" stroke-width="8"><path d="M1187.97 232.166l-.234 26.034-.597.006.239-26.518h.113l.001-.114 26.518-.239-.006.597-26.034.234zm52.326-52.326l-.234 26.034-.597.006.239-26.518h.113l.001-.114 26.517-.238-.005.596-26.034.234z"/><path d="M1214.133 206.003l-.234 26.034-.597.006.239-26.518h.113l.001-.114 26.518-.238-.006.596-26.034.234zm53.033-53.033l-.234 26.034-.597.006.239-26.518h.113l.001-.114 26.518-.239-.006.597-26.034.234z"/></g><g transform="translate(1001 326)"><mask id="h" fill="#fff"><use xlink:href="#g"/></mask><g mask="url(#h)" stroke-width="16" stroke="#F7D573"><circle cx="18.5" cy="18.5" r="18.5"/></g></g><g transform="translate(826 492)"><mask id="j" fill="#fff"><use xlink:href="#i"/></mask><g mask="url(#j)" stroke="#F7D573" stroke-width="16" fill="#F7D573"><circle cx="9.5" cy="9.5" r="9.5"/></g></g><g transform="translate(1048 897)"><mask id="l" fill="#fff"><use xlink:href="#k"/></mask><g mask="url(#l)" stroke-width="52.8" stroke="#2E2F3B"><circle cx="108" cy="108" r="108"/></g></g><g transform="translate(1772 348)"><circle fill="#7071AE" cx="79.5" cy="412.5" r="9.5"/><circle fill="#2E2F3B" cx="69.5" cy="502.5" r="69.5"/><circle fill="#F7D573" cx="582" cy="42" r="42"/><circle fill="#F88664" cx="190.5" cy="421.5" r="51.5"/></g><g transform="rotate(105 -13.427 255.393)"><circle fill="#2E2F3B" cx="46" cy="133" r="46"/><circle fill="#F88664" cx="166.5" cy="51.5" r="51.5"/></g><path stroke="#F7D573" stroke-width="16" d="M503.5 948l26.5 53h-53z"/><path stroke="#7071AE" stroke-width="10" d="M237.026 377.564l-20.23 37.36L195 383.796zM2503.467 656.488l20.963 36.953-37.948 1.99z"/><path stroke="#2E2F3B" stroke-width="40" d="M2404.971 569.873l-89.52 165.324L2219 597.45z"/><circle stroke="#2E2F3B" stroke-width="32.8" cx="397" cy="618" r="31"/><g stroke="#7071AE" stroke-width="8"><path d="M2245.17 864.685l-25.207 6.513-.16-.576 25.676-6.632.03.109.11-.028 7.094 25.552-.578.149-6.964-25.087zm64.087 37l-25.208 6.513-.16-.576 25.676-6.632.03.11.11-.03 7.093 25.552-.577.15-6.964-25.086z"/><path d="M2277.214 883.185l-25.208 6.513-.16-.576 25.676-6.632.03.11.11-.03 7.093 25.553-.577.149-6.964-25.087zm64.952 37.5l-25.208 6.513-.16-.576 25.676-6.632.03.11.11-.03 7.094 25.553-.578.149-6.964-25.087z"/></g></g></svg>