<svg width="81" height="16" viewBox="0 0 81 16" xmlns="http://www.w3.org/2000/svg"><title>Group Copy 2</title><g stroke="#292934" stroke-width="4" fill="none" fill-rule="evenodd"><path d="M12.5 3.398L3.213 13 3 12.78 12.46 3l.04.042.04-.042L22 12.78l-.213.22L12.5 3.398zM49.5 3.398L40.213 13 40 12.78 49.46 3l.04.042.04-.042L59 12.78l-.213.22L49.5 3.398z"/><path d="M30.5 3.398L21.213 13 21 12.78 30.46 3l.04.042.04-.042L40 12.78l-.213.22L30.5 3.398zM68.5 3.398L59.213 13 59 12.78 68.46 3l.04.042.04-.042L78 12.78l-.213.22L68.5 3.398z"/></g></svg>