<svg width="54" height="54" viewBox="0 0 54 54" xmlns="http://www.w3.org/2000/svg"><title>Page 1 Copy</title><g fill="#292934" fill-rule="evenodd"><path d="M27 6.42C15.652 6.42 6.42 15.652 6.42 27c0 11.348 9.232 20.58 20.58 20.58 11.348 0 20.58-9.232 20.58-20.58 0-11.348-9.232-20.58-20.58-20.58M27 54C12.112 54 0 41.888 0 27S12.112 0 27 0s27 12.112 27 27-12.112 27-27 27"/><path d="M36.53 35.534l-4.145-4.145c-1.7 1.732-3.501 2.718-5.676 2.718-1.869 0-3.058-.952-3.058-2.413v-.068c0-1.529 1.393-2.447 3.874-2.447h2.786l.952-3.432-5.471-4.928h9.107v-5.336H17.703v4.725l5.675 4.86c-3.398.747-6.15 2.65-6.15 6.694v.068c0 4.826 3.874 7.918 9.175 7.918 4.588 0 7.816-1.665 10.127-4.214"/></g></svg>