<svg width="277" height="25" viewBox="0 0 277 25" xmlns="http://www.w3.org/2000/svg"><title>arnoldclark</title><path d="M187.923 1c-.73 0-1.458.582-1.604 1.382l-4.082 22.254h10.497c.729 0 1.458-.581 1.603-1.381L198.42 1h-10.496zM104.75 7.036H88.203c-3.135 0-4.155 1.455-4.52 3.564L81.788 21c-.437 2.11.291 3.564 3.28 3.564h16.474c3.208 0 4.228-1.455 4.593-3.564l1.895-10.4c.437-2.11-.292-3.564-3.28-3.564zm-7.8 6.691l-.802 4.218c-.291 1.528-1.24 1.528-1.895 1.528-.656 0-1.604 0-1.312-1.528l.802-4.218c.291-1.527 1.02-1.527 1.895-1.527.729 0 1.604 0 1.312 1.527zM143.457 1c-.73 0-1.458.582-1.604 1.382l-1.166 6.254s-.51-1.6-2.916-1.6h-7.144c-3.207 0-4.155 1.455-4.592 3.564L124.14 21c-.438 2.11.291 3.636 3.28 3.636h7.144c2.405 0 3.499-1.745 3.499-1.745l-.292 1.745h10.424c.729 0 1.458-.581 1.604-1.381L153.88 1h-10.424zm-3.426 12.727l-.802 4.218c-.292 1.528-1.24 1.528-1.895 1.528-.656 0-1.604 0-1.312-1.528l.801-4.218c.292-1.527 1.02-1.527 1.896-1.527.802 0 1.603 0 1.312 1.527zM74.863 6.745c-5.759 0-7.946 1.964-7.946 1.964l.292-1.673h-9.622c-.73 0-1.458.582-1.604 1.382l-3.061 16.218h9.549c.729 0 1.458-.581 1.603-1.381l1.75-9.237s.364-1.818 2.114-1.818c1.458 0 1.24 1.236 1.24 1.236l-2.115 11.2h9.55c.728 0 1.457-.581 1.603-1.381l2.041-11.128c.73-3.418-1.676-5.382-5.394-5.382zM114.299 1c-.729 0-1.458.582-1.604 1.382l-4.082 22.254h10.497c.729 0 1.458-.581 1.604-1.381L124.723 1h-10.424zM216.06 7.036c-.729 0-1.458.582-1.604 1.382l-.073.218s-.51-1.6-2.915-1.6h-7.217c-3.207 0-4.155 1.455-4.592 3.564L197.763 21c-.437 2.11.292 3.636 3.28 3.636h7.144c2.406 0 3.5-1.745 3.5-1.745l-.292 1.745h10.424c.729 0 1.458-.581 1.603-1.381l2.99-16.219H216.06zm-2.333 6.691l-.801 4.218c-.292 1.528-1.24 1.528-1.896 1.528-.656 0-1.603 0-1.312-1.528l.802-4.218c.292-1.527 1.02-1.527 1.895-1.527.802 0 1.604 0 1.312 1.527zM277 7.036h-11.882c-.51 0-.947.219-1.24.655l-3.935 4.873L262.057 1h-10.424c-.73 0-1.458.582-1.604 1.382l-4.155 22.254h10.497c.729 0 1.458-.581 1.603-1.381l.948-5.164 2.187 6.545h13.267l-5.03-9.454L277 7.036zM48.11 9.51l.438-2.474H38.124c-.729 0-1.458.582-1.604 1.382l-2.988 16.218h10.424c.728 0 1.457-.581 1.603-1.381l.948-5.382c.291-1.746 1.968-3.2 3.717-3.2.73 0 1.313.218 1.75.582l1.53-8.364c-4.008.654-5.393 2.618-5.393 2.618zm192.807 0l.437-2.474h-10.496c-.73 0-1.458.582-1.604 1.382l-2.989 16.218h10.424c.73 0 1.458-.581 1.604-1.381l.948-5.382c.291-1.746 1.968-3.2 3.717-3.2.73 0 1.312.218 1.75.582l1.676-8.219c-4.082.51-5.467 2.473-5.467 2.473zM166.492 1c-1.969 0-3.864 1.6-4.155 3.564l-3.062 16.509c-.364 1.963 1.02 3.563 2.989 3.563h15.818c.656 0 1.166-.436 1.312-1.09v-.073l.875-4.728h-7.363c-.729 0-1.239-.581-1.166-1.381l1.677-9.237c.145-.727.874-1.382 1.603-1.382h6.123c.73 0 1.458-.581 1.604-1.381l.802-4.51L166.492 1zM15.745 1c-2.77 0-5.394 1.818-6.633 4.29L0 24.637h10.788c.875 0 1.677-.581 2.041-1.381l1.167-2.619h4.884l-.875 4h11.08c.729 0 1.458-.581 1.604-1.381L34.77 1H15.745zm4.447 13.818h-3.645s1.968-4.654 2.843-6.473c.364-.8 1.24-1.381 2.114-1.381h.51l-1.822 7.854z"/></svg>