<svg width="191" height="53" viewBox="0 0 191 53" xmlns="http://www.w3.org/2000/svg" xmlns:xlink="http://www.w3.org/1999/xlink"><title>Group 9</title><defs><path id="a" d="M190.986 0v52.64H0V0h190.986z"/></defs><g fill="none" fill-rule="evenodd"><mask id="b" fill="#fff"><use xlink:href="#a"/></mask><path d="M34.829 19.313C34.837 8.017 26.938.021 13.889.01L.03 0l-.03 38.572 13.916.011c12.995.01 20.906-7.974 20.914-19.27zm-8.825-.007c-.007 8.706-6.181 11.787-11.595 11.783l-5.47-.004.018-23.584 5.469.004c5.414.004 11.584 3.095 11.578 11.801zm11.537-6.824l-.02 26.119 8.663.006.013-17.191s1.734-1.212 4.603-1.209c1.84.001 3.898.499 5.36 1.216l.006-8.485c-1.407-.718-3.086-.995-4.602-.996-2.49-.002-4.82.713-6.607 2.089l-7.416-1.549zm43.707 10.227c.005-6.061-2.265-10.746-10.712-10.753-3.141-.002-8.068.655-11.318 2.251l-.005 7.383c3.304-1.54 7.69-2.363 9.964-2.361 2.166.001 3.735.719 3.734 2.592l-.001 1.047-4.873-.003c-8.067-.007-10.668 3.463-10.672 8.202-.005 6.282 4.596 8.324 9.306 8.328 2.816.001 5.632-.712 7.149-2.034l7.415 2.929.013-17.581zm-8.29 9.196c-1.3 1.101-2.925 1.651-4.333 1.65-1.678-.001-2.977-.828-2.976-2.592 0-1.874 1.464-2.699 2.763-2.698l4.548.004-.002 3.636zm21.056 7.51c2.707.002 4.548-.602 6.336-1.593l-.001 1.708c-.002 2.59-1.52 5.454-6.34 5.45-2.977-.001-6.441-1.106-10.121-3.478l-.007 9.036c3.247 1.602 8.12 2.101 10.99 2.103 10.666.008 14.19-6.822 14.196-14.151l.019-25.733-8.663-.006-.013 18.074c-1.03.881-2.763 1.429-4.28 1.428-2.815-.002-3.733-1.986-3.732-4.079l.012-15.43-8.664-.006-.012 16.696c-.004 5.62 2.97 9.976 10.28 9.981zm37.88-9.448c-1.57.991-3.683 1.375-4.873 1.374-1.841-.002-2.275-.884-2.274-1.82l.008-9.588 6.606.005.005-7.164-6.606-.005.007-9.809-8.72 3.19-.004 6.613-4.115-.004-.005 7.164 4.114.003-.007 10.249c-.004 5.4 2.268 8.874 8.71 8.879 3.14.002 5.849-.823 7.149-1.649l.006-7.438zm11.368-4.235c.003-3.691 1.846-6.666 5.582-6.663 3.735.003 5.574 2.98 5.572 6.672-.003 3.747-1.846 6.666-5.582 6.663-3.736-.003-5.574-2.979-5.572-6.672zm19.817.016c.005-7.494-5.405-13.725-14.23-13.732-8.825-.007-14.244 6.215-14.25 13.71-.005 7.549 5.404 13.724 14.23 13.731 8.826.008 14.245-6.216 14.25-13.709zm27.895 12.971l.013-16.697c.004-5.62-3.08-9.976-10.551-9.981-3.682-.003-6.173 1.042-7.744 2.087l-7.037-1.548-.02 26.118 8.663.008.013-18.075c1.029-.549 2.6-1.1 4.116-1.099 2.382.002 3.898 1.382 3.896 3.64l-.012 15.54 8.663.007z" fill="#000" mask="url(#b)"/></g></svg>