<svg width="569" height="70" viewBox="0 0 569 70" xmlns="http://www.w3.org/2000/svg" xmlns:xlink="http://www.w3.org/1999/xlink"><title>Page 1</title><defs><path id="a" d="M0 .126v57.077h53.303V.126z"/><path id="c" d="M36.241 41.503V.083H.005v41.42h36.236z"/></defs><g fill="none" fill-rule="evenodd"><g transform="translate(0 .004)"><mask id="b" fill="#fff"><use xlink:href="#a"/></mask><path d="M11.566 28.815c-.032 2.647.31 5.25 1.088 7.772 2.513 8.138 8.509 11.712 16.553 10.614 5.183-.708 8.626-3.824 10.657-8.561.991-2.313 1.483-4.748 1.705-7.256.398-4.499-.112-8.861-1.91-13.017-1.497-3.455-3.892-6.093-7.477-7.456-2.365-.899-4.821-1.139-7.356-.871-2.597.274-4.937 1.111-6.996 2.716-2.245 1.748-3.695 4.063-4.683 6.688-1.136 3.017-1.564 6.161-1.581 9.37m-11.55-.303a29.604 29.604 0 0 1 2.208-12.254C5.772 7.637 12.06 2.304 21.304.641 26.944-.373 32.475.068 37.759 2.33c7.05 3.018 11.473 8.454 13.903 15.622 1.46 4.307 1.804 8.75 1.58 13.26-.21 4.18-1.162 8.181-3.05 11.921-3.813 7.55-9.9 12.075-18.233 13.561-5.417.966-10.735.594-15.854-1.437C8.59 52.277 3.897 46.651 1.439 39.07.363 35.75-.069 33.1.016 28.511" fill="#000" mask="url(#b)"/></g><path d="M284.607 55.704c-.027-.507-.073-.971-.073-1.436-.003-17.075-.003-34.15-.002-51.225 0-.258.009-.517.013-.776.01-.518.248-.804.791-.794.258.005.517-.004.776-.004 12.454 0 24.909-.001 37.363.002.46 0 .92.04 1.443.065.047.442.112.774.113 1.106.009 2.415.011 4.83.002 7.244-.005 1.248-.058 1.31-1.323 1.312-5.343.01-10.687.004-16.03.005h-9.439c-.344 0-.69-.01-1.033.017-.907.073-1.08.201-1.086 1.085a714.31 714.31 0 0 0 0 9.96c.006.88.176 1.008 1.092 1.075.428.032.861.018 1.292.018h21.978c.302 0 .604-.005.905.003 1.246.031 1.303.078 1.307 1.338.007 2.285.001 4.57-.005 6.856 0 .168-.047.336-.096.662-.484.036-.977.106-1.47.107-7.628.007-15.256-.002-22.884.008-2.038.003-2.147-.35-2.14 2.082.012 3.32 0 6.64.005 9.96.003 1.69.048 1.746 1.74 1.747 8.49.007 16.98.003 25.47.005.516 0 1.034.005 1.55.027.459.02.725.275.726.736.007 2.922.004 5.844.004 8.719-1.043.319-39.226.4-40.989.096m118.99-19.464c-.03-2.622-.43-5.38-1.738-7.93-1.719-3.352-4.51-5.071-8.254-4.964-3.861.11-6.639 2.029-8.015 5.668a20.82 20.82 0 0 0-1.18 4.871c-.416 3.514-.139 6.99 1.45 10.226 1.775 3.618 4.803 5.158 8.748 4.96 3.679-.186 6.215-2.071 7.66-5.426.988-2.29 1.302-4.72 1.329-7.405m-18.825 14.919c-.052.529-.147 1.058-.148 1.588-.012 5.129-.006 10.258-.008 15.387-.001 1.712-.006 1.714-1.697 1.715-2.456.001-4.91.003-7.366-.003-.418-.001-.835-.043-1.32-.07-.046-.431-.113-.762-.113-1.093-.005-16.896-.006-33.792-.002-50.688 0-1.324.051-1.378 1.395-1.386 2.37-.014 4.739-.014 7.108 0 1.37.007 1.43.083 1.446 1.491.009.776-.012 1.552.012 2.328.01.324.1.645.197 1.22.382-.385.63-.582.813-.827 3.202-4.306 7.628-5.612 12.75-5.244 2.569.185 5.002.817 7.245 2.11 3.183 1.832 5.447 4.51 6.817 7.868 2.93 7.18 3.094 14.443-.014 21.598-2.126 4.897-5.802 8.177-11.119 9.372-2.95.663-5.889.581-8.784-.364-2.437-.796-4.474-2.18-6.125-4.14-.266-.316-.545-.62-.818-.931l-.27.069m-294.643-14.6c.11-2.943-.378-5.671-1.644-8.241-2.067-4.198-6.435-5.773-10.662-4.598-3.12.868-4.95 3.067-5.899 5.998-.525 1.622-.818 3.35-.978 5.053-.294 3.13.1 6.2 1.407 9.096 1.916 4.247 5.845 5.753 10.005 5.076 3.686-.6 5.803-2.977 6.938-6.365.662-1.977.943-4.023.833-6.02M60.912 69.724c-.036-.507-.099-.966-.099-1.425-.005-16.646-.005-33.293-.003-49.94 0-1.72.03-1.748 1.721-1.752a782.73 782.73 0 0 1 6.853.003c1.32.009 1.38.08 1.39 1.402.008 1.111.001 2.223.001 3.339.716.08.842-.423 1.077-.736 2.019-2.68 4.72-4.308 7.985-4.837 7.98-1.294 15.574 1.962 18.963 10.379 1.699 4.217 2.092 8.6 1.75 13.075-.325 4.257-1.607 8.2-4.243 11.607-3.067 3.964-7.177 5.909-12.162 6.084-3.473.122-6.666-.71-9.455-2.82-.817-.618-1.507-1.406-2.243-2.128-.27-.264-.504-.563-.785-.881-.51.434-.35.936-.35 1.371-.012 5.262-.008 10.523-.008 15.784v1.338c-1.056.309-8.306.393-10.392.137M222.703 36.59c-1.675 1.084-3.508 1.348-5.321 1.661-1.267.22-2.573.269-3.813.584-1.36.346-2.752.752-3.976 1.415-2.048 1.107-2.678 3.054-2.443 5.28.23 2.168 1.442 3.474 3.708 4.102 1.945.539 3.91.518 5.869.092 3.352-.728 5.404-2.85 5.946-6.177.342-2.102.217-4.281.29-6.426.003-.108-.104-.22-.26-.532m-14.438-8.243h-10.253c0-.555-.068-1.029.01-1.476.61-3.486 2.345-6.252 5.323-8.21 2.087-1.371 4.402-2.177 6.83-2.611 4.932-.883 9.859-.795 14.724.45 1.238.318 2.456.821 3.588 1.419 3.315 1.748 4.934 4.61 4.974 8.31.06 5.389-.008 10.78.025 16.168.027 4.464-.364 8.964 1.122 13.39-.357.038-.6.087-.845.087-2.844.005-5.688.01-8.532 0-1.078-.003-1.127-.046-1.387-1.104-.123-.5-.18-1.016-.292-1.519-.07-.315-.188-.62-.315-1.027-.33.216-.562.327-.746.492-2.31 2.079-5.049 3.262-8.07 3.814-3.34.61-6.669.637-9.958-.365-4.681-1.426-7.794-5.09-7.803-10.475-.002-1.113.07-2.24.256-3.337.517-3.058 2.267-5.247 4.963-6.708 2.149-1.165 4.486-1.736 6.88-2.088 3.062-.45 6.13-.854 9.191-1.305.591-.087 1.17-.282 1.743-.46 3.044-.94 3.879-3.104 2.92-6.088-.423-1.314-1.316-2.241-2.622-2.662-2.522-.811-5.087-.85-7.62-.083-1.912.578-3.112 1.935-3.686 3.841-.148.49-.27.989-.42 1.547m267.773 3.692c-.3-1.89-.757-3.483-1.614-4.944-1.026-1.751-2.51-2.914-4.493-3.414a11.077 11.077 0 0 0-4.851-.136c-4.489.86-6.54 4.313-7.045 7.738-.078.529.165.82.691.87.257.024.515.035.773.035 4.99.002 9.98.005 14.971-.004.459-.001.918-.083 1.568-.145m9.592 11.882c0 .29.034.427-.005.54-2.078 6.01-6.478 11.236-14.56 12.237-3.598.445-7.132.306-10.59-.809-5.418-1.746-9.25-5.28-11.326-10.562-2.173-5.529-2.342-11.203-.354-16.816 2.556-7.217 7.769-11.428 15.26-12.748 3.665-.646 7.312-.318 10.794 1.07 5.428 2.166 8.674 6.336 10.504 11.736.906 2.675 1.237 5.455 1.311 8.264.048 1.785-.023 1.832-1.778 1.833-8.231.004-16.463 0-24.695.007-.677 0-1.354.072-2.212.12.1.946.136 1.75.278 2.536.514 2.835 1.663 5.346 4.399 6.625 3.86 1.802 7.69 1.602 11.312-.753.986-.641 1.796-1.483 2.345-2.541.234-.45.506-.752 1.08-.748 2.711.02 5.422.009 8.237.009m5.944-.483h9.687c.11.365.248.719.32 1.085.464 2.324 1.9 3.845 4.028 4.691 2.563 1.02 5.215 1.107 7.842.26 1.951-.628 3.418-1.797 3.78-3.992.198-1.203-.083-2.28-.996-3.046a10.177 10.177 0 0 0-2.506-1.546c-2.744-1.173-5.679-1.693-8.573-2.342-2.31-.518-4.626-1.032-6.77-2.07-.962-.467-1.912-1.005-2.766-1.646-2.49-1.87-3.39-4.466-3.194-7.499.05-.772.114-1.55.27-2.306.72-3.504 2.807-5.95 5.978-7.49 2.27-1.104 4.707-1.599 7.21-1.854 2.368-.242 4.725-.256 7.091.01 3.612.406 7.03 1.31 9.827 3.8 2.261 2.012 3.437 4.586 3.776 7.568.019.163-.018.333-.034.581-.355.043-.685.116-1.016.117-2.5.01-4.999.014-7.498.002-1.165-.006-1.18-.02-1.492-1.12-.586-2.07-2.006-3.292-4.017-3.805-2.113-.54-4.262-.512-6.4-.067-.25.053-.494.146-.735.234-1.252.457-2.177 1.23-2.398 2.619-.251 1.571.348 2.78 1.658 3.649 1.314.872 2.805 1.312 4.313 1.67 2.677.636 5.372 1.193 8.048 1.835 2.055.494 4.047 1.178 5.9 2.224 4.01 2.263 5.328 5.77 4.797 10.154-.706 5.832-4.321 9.088-9.665 10.696-3.84 1.154-7.777 1.315-11.76.882-2.548-.277-5.002-.844-7.32-1.943-4.27-2.024-6.687-5.422-7.378-10.073-.055-.37-.007-.754-.007-1.278" fill="#000"/><g transform="translate(532.662 15.401)"><mask id="d" fill="#fff"><use xlink:href="#c"/></mask><path d="M.078 28.05h9.671c.128.424.267.783.344 1.155.494 2.379 2.011 3.872 4.2 4.688 2.45.912 4.977 1.01 7.479.231 1.888-.588 3.406-1.626 3.882-3.75.353-1.575-.093-2.881-1.388-3.735-1.063-.701-2.25-1.306-3.469-1.66-2.721-.791-5.491-1.418-8.25-2.078-2.349-.562-4.67-1.195-6.802-2.369-2.193-1.207-3.996-2.827-4.526-5.363-1.058-5.063.465-9.903 4.996-12.525 2.433-1.408 5.1-2.028 7.858-2.342A32.556 32.556 0 0 1 21.55.296c3.026.352 5.933 1.063 8.49 2.815 3.162 2.168 4.715 5.243 5.09 9.077-.365.067-.65.164-.934.165-2.585.012-5.171.01-7.757.006-.566 0-1.18.031-1.332-.712-.582-2.84-2.59-4.066-5.207-4.443-1.786-.258-3.614-.298-5.388.191-.571.158-1.128.422-1.644.72-1.85 1.068-1.854 3.83-.624 4.946.656.595 1.414 1.2 2.234 1.47 2.118.698 4.29 1.23 6.45 1.797 2.41.632 4.852 1.157 7.24 1.864 1.992.59 3.832 1.538 5.38 2.982 1.657 1.548 2.567 3.487 2.673 5.709a18.047 18.047 0 0 1-.35 4.485c-.717 3.457-2.81 5.944-5.87 7.638-2.332 1.29-4.851 2.013-7.488 2.243-2.011.176-4.043.313-6.055.228-3.51-.148-6.913-.855-10.022-2.615C2.577 36.678.574 33.285.014 28.961c-.032-.246.032-.505.064-.91" fill="#000" mask="url(#d)"/></g><path d="M191.722 41.12c-.137.78-.224 1.452-.375 2.11-1.768 7.679-7.242 12.452-14.975 13.466-3.42.449-6.787.316-10.08-.72-5.86-1.845-9.952-5.67-11.909-11.47-2.186-6.475-1.797-12.937 1.288-19.075 2.648-5.267 7.049-8.362 12.817-9.476 4.952-.955 9.79-.542 14.373 1.633 5.107 2.425 8.005 6.501 8.644 12.147.01.077-.04.162-.105.396-.305.032-.667.102-1.03.104-2.628.009-5.256.006-7.884.004-1.338 0-1.188-.087-1.481-1.14-.776-2.796-2.47-4.692-5.333-5.42-4.44-1.126-8.377.576-10.363 4.654-1.033 2.121-1.57 4.368-1.66 6.719-.092 2.376-.04 4.747.749 7.026.308.891.64 1.791 1.096 2.613 1.856 3.346 4.78 4.755 8.52 4.34 3.612-.4 5.95-2.477 7.125-5.895.222-.644.266-1.553.717-1.86.518-.352 1.398-.205 2.12-.212 2.112-.02 4.223-.01 6.334-.004.42.001.84.035 1.412.06m157.411 2.263c-.386.525-.672.883-.925 1.264-2.266 3.409-4.547 6.809-6.772 10.244-.48.741-1.015 1.02-1.894 1.005-3.058-.05-6.118-.018-9.177-.022-.336 0-.672-.032-1.257-.062 1.56-2.449 3.15-4.67 4.682-6.928 1.549-2.282 3.11-4.556 4.665-6.834 1.55-2.272 3.098-4.546 4.679-6.865l-12.712-18.353c.44-.101.708-.216.977-.217 3.274-.013 6.55.008 9.823-.02.789-.008 1.257.325 1.675.958 1.78 2.698 3.598 5.37 5.406 8.049.26.385.543.755.94 1.304.37-.462.675-.79.922-1.158 1.802-2.684 3.615-5.359 5.37-8.073.502-.778 1.088-1.098 2.008-1.085 2.973.04 5.946.011 8.92.019.331 0 .663.063 1.196.117-.752 1.413-1.684 2.526-2.49 3.717-.82 1.213-1.68 2.4-2.522 3.599-.842 1.199-1.681 2.4-2.523 3.599-.842 1.2-1.687 2.396-2.528 3.596-.838 1.198-1.672 2.4-2.6 3.731l14.438 20.822c-.468.04-.746.083-1.025.084-3.231.004-6.463-.029-9.694.023-.89.014-1.407-.296-1.883-1.028-2.23-3.433-4.51-6.833-6.778-10.24-.253-.38-.541-.734-.921-1.246M128.986 23.518h-7.866c-.053.615-.128 1.072-.128 1.529a9502.75 9502.75 0 0 0-.002 18.496c0 .43.01.866.074 1.29.336 2.219 1.383 3.153 3.639 3.21 1.369.035 2.74.007 4.186.007.027.158.09.362.09.565.008 2.112.017 4.225 0 6.338-.008.97-.153 1.106-1.122 1.176-2.922.208-5.85.46-8.765-.012-1.223-.199-2.462-.455-3.618-.887-3.177-1.186-4.701-3.651-4.902-6.942-.115-1.89-.043-3.793-.044-5.69-.004-5.735.001-11.469-.006-17.203 0-.549-.063-1.097-.104-1.766-.547-.039-1.002-.095-1.458-.1a218.252 218.252 0 0 0-4.137-.001c-.542.005-.958-.113-.954-.756.012-1.938.032-3.876.056-5.814.001-.073.082-.145.207-.354h2.986c.69-.001 1.38.015 2.068-.01 1.215-.044 1.326-.146 1.334-1.357.015-2.5.005-5.001.007-7.502 0-.69.013-1.38.003-2.07-.008-.563.2-.924.81-.921 3.058.012 6.116.03 9.173.051.078 0 .155.07.379.178.027.375.088.832.09 1.288.008 2.846.004 5.692.004 8.537v1.628c.66.07 1.16.16 1.663.17 1.206.022 2.413.002 3.62.009 3.225.018 2.665-.275 2.713 2.784.02 1.288.004 2.577.004 4.129M242.637 1.55h10.25c.312 1.07.336 52.996.026 54.233h-10.136c-.047-.552-.133-1.088-.134-1.625-.008-7.756-.006-15.513-.006-23.27V1.551zm188.7 22.217c.21-.353.425-.703.63-1.059 2.29-3.987 5.687-6.385 10.251-7.028.961-.136 1.957-.035 2.936-.031.72.003.953.407.942 1.09-.025 1.594-.006 3.189-.006 4.783v3.912c-.42 0-.703.015-.984-.003-2.106-.133-4.214-.296-6.283.3-2.77.798-4.743 2.523-5.958 5.142-1.133 2.444-1.4 5.048-1.417 7.684-.035 5.085-.01 10.17-.011 15.256 0 .388-.012.775-.007 1.163.009.655-.311.91-.959.905-2.971-.02-5.943-.013-8.915-.022-.124 0-.248-.057-.525-.126-.032-.458-.096-.953-.096-1.448-.006-9.265-.005-18.53-.005-27.796 0-2.844-.005-5.688.003-8.532.004-1.254.074-1.338 1.303-1.346 2.455-.017 4.91-.019 7.365.001 1.154.01 1.265.127 1.281 1.263.022 1.552-.002 3.103.016 4.654.005.398.092.794.142 1.191l.297.047zM145.242 55.818h-10.253c-.046-.411-.12-.779-.121-1.146-.006-12.235-.007-24.47-.002-36.706 0-1.294.061-1.351 1.422-1.358 2.497-.012 4.994-.01 7.492-.001 1.496.005 1.532.04 1.534 1.517.005 4.911.002 9.823.002 14.734 0 7.108.001 14.217-.003 21.326 0 .503-.043 1.007-.071 1.634m-.011-54.194V9.84c-1.023.3-8.91.34-10.352.034-.027-2.685-.034-5.412.014-8.11.918-.349 8.384-.451 10.338-.14" fill="#000"/></g></svg>