<svg xmlns="http://www.w3.org/2000/svg" width="265.944" height="266.188"><defs><clipPath id="a"><path d="M119.449 59.009V16.41h182.046v42.599"/></clipPath></defs><g clip-path="url(#a)" transform="matrix(6.25 0 0 -6.25 -746.556 368.75)"><path d="M140.726 57.749c-11.054 0-20.017-8.973-20.017-20.04 0-11.067 8.963-20.039 20.017-20.039 11.055 0 20.02 8.972 20.02 20.039 0 11.067-8.965 20.04-20.02 20.04z" fill="none" stroke="#fff" stroke-width="2.52"/></g><path d="M132.981 7.819C63.894 7.819 7.875 63.9 7.875 133.069s56.019 125.244 125.106 125.244c69.094 0 125.125-56.075 125.125-125.244S202.075 7.819 132.981 7.819" fill="#1b458f"/><path d="M132.981 14.156c-65.6 0-118.769 53.238-118.769 118.913 0 65.669 53.17 118.912 118.77 118.912 65.618 0 118.787-53.244 118.787-118.912 0-65.675-53.169-118.913-118.788-118.913" fill="#fff"/><path d="M132.981 40.875c-50.85 0-92.087 41.281-92.087 92.194 0 50.912 41.237 92.194 92.087 92.194 50.869 0 92.1-41.282 92.1-92.194 0-50.913-41.231-92.194-92.1-92.194" fill="#1b458f"/><path d="M132.981 46.125c-47.956 0-86.837 38.931-86.837 86.944 0 48.031 38.881 86.944 86.837 86.944 47.975 0 86.856-38.913 86.856-86.944 0-48.013-38.88-86.944-86.856-86.944" fill="#fff"/><path d="M132.981 55.887c-39.531 0-71.581 32.088-71.581 71.675 0 39.588 32.05 71.675 71.581 71.675 39.544 0 71.6-32.087 71.6-71.675 0-39.587-32.056-71.675-71.6-71.675" fill="#1b458f"/><path d="M93.9 94.456c-4.719-4.05-14.831-8.093-22.256-8.093m20.237 73.406c-4.718 4.044-14.837 8.106-22.243 8.106m19.543-33.269c-7.075 3.381-17.2 6.413-28.981 8.431m1.675-33.73s11.8 6.743 27.644 8.093m81.962-22.944c4.719-4.05 14.844-8.094 22.257-8.094m-20.244 73.407c4.725 4.043 14.837 8.106 22.256 8.106m-19.55-33.269c7.075 3.381 17.2 6.413 28.994 8.431m-1.694-33.73s-11.794 6.743-27.637 8.093" fill="none" stroke="#fff" stroke-width="4.45"/><path d="M103.756 129.075a3.188 3.188 0 0 1-1.194 0h1.194" fill="#e82b31"/><path d="M112.713 129.075c-2.2 1.144-5.307 1.575-6.294 1.475.437-.175.556-.85.587-1.475h5.707" fill="#e51636"/><path d="M115.231 129.075c-.056.05-.119.075-.168.1.01-.04.02-.075.02-.1h.15m11.567 0c-.188.088-.388.075-.588 0h.588" fill="#e82b31"/><path d="M161.795 128.68c.23 1.437.65 2.718 1.4 3.512-1.063 2.494-6.682 10.887-13.888 6.681h-.187c.068 3.306-1.2 5.844-1.2 5.844-1.107 4.981 7.075 3.862 7.075 3.862l1.968.332-.518 1.506 1.443.338-.518 1.575s1.306 5.768.775 6.95c-3.994-3.35-6.944 3.53-4.313 4.262 2.613.719-.337 4.919-1.25 4.919-.856.45.194 2.631.132 3.537-.07.925.78.45 0 .263-.794-.2-2.563-2.294-2.682-3.469-.862-.131-1.387-.994-2.112-1.769-.444 1.044-2.213.92-2.875.582-.919.462.062 2.75-.581 3.8-.8-.713-2.232-2.682-1.507-3.738-.462-.587-.662-1.956-.144-2.744-.718-.068-.518-.406-1.243-1.325-.725-.912-2.413.525-3.075 1.057-.525-1.57.443-3.55 1.768-3.932-.462-.662.725-1.575.4-2.243-.325-.644-2.168-.188-2.956-.125.525-.92 1.894-1.37 2.756-2.025.844-.663 2.938-.6 2.938-.6 3.212-.525 1.506 2.043 3.812 2.293 2.294.27 2.032-2.48.125-4.075-1.368-1.118-5.768-2.737-7.275-3.068-1.5-.325-3.075.98-3.075.98l.063-1.9-1.569-.2s.4-.587.519-2.093c.144-1.506.262-4.387-3.8-6.037-4.056-1.632-4.7 1.65-3.2 3.475 1.512 1.843.25 6.893-.725 7.48-2.556-1.768-7.331 2.688-6.888 1.976.463-.725-.38-1.244-.843-2.044-.463-.781-3.538 1.256-4.982 2.044.463-.475-.125-1.913-1.43-3.219-1.326-1.312-4.332.988-5.388 1.438.593-1.25-.644-4.138-1.363-4.65-.725-.525-1.65.193-2.494.45 0-.256.4-1.3 1.444-2.744 1.05-1.444.325-3.556.063-3.744-.263-.194-1.644-.137-2.35-.069.256-.912 1.043-1.569 2.412-1.569 0-1.9 4.056-1.768 4.719-1.706.65.063.187 0 .187 0s-.256-1.05-.78-1.569c.918-.4 1.962.188 2.612 1.238 2.831-1.181 3.35 3.212 3.875 4.581 4.781 4.994 5.506.213 4.581-.581-4.181-2.95-3.475-5.769-3.475-6.694 0-.906-.381-1.375-1.306-1.375.4-1.044 1.906-1.581 3.012-1.306 5.969-5.969 11.075 1.837 11.863 3.012.781 1.182 1.768 1.838 1.831.988.075-.85 1.181-5.25-2.944-5.906-2.631-.413-2.918-1.563-2.969-2.457h15.907a224.94 224.94 0 0 1 2.4 2.457c1.412 1.493 2.243 3.08 2.706 4.643l.094-.056c1.968.269 7.612 1.844 7.875-3.931-.263-2.088-2.357-2.625-3.42-1.45-1.043 1.187-3.268 1.187-3.793-.775-.062-.263-.137-.557-.2-.888h12.563" fill="#e51636"/><path d="M102.562 129.075a1.782 1.782 0 0 1-.725-.294c-.8-.587-1.85 0-3.156.263.788-1.05.144-2.888-.644-3.475-.8-.594-2.168.187-3.293.725-.782-1.057 1.45-4.263 1.45-4.92-.707-.53-1.957-.793-2.819-.655.462-.857.662-2.17 2.294-2.37.4-.655 2.237-1.312 3.275-1.437 0 0-.525-2.1-1.107-2.493.582-.394 2.032-.331 3.013.462 2.619-1.512 4 3.075 4.325 4.006 5.169 3.732 5.95-1.718 5.769-2.306-1.507.4-3.538-1.9-3.538-1.9s1.044-.132 1.844-.656c0 0-1.725-2.294-3.35-2.107-1.65.207-2.756-2.287-3.219-3.08-.462-.782-.062-.057.2 0 .263.068 1.25.137 2.425-.126 1.175-.256-.131-1.312-.131-1.312s-1.382-.2-3.075.256c-1.713.462-2.432-1.369-2.5-2.1-.52-.45-1.632.456-2.407.794.12-.982 1.025-2.357 2.213-2.757l.131-1.9s.194-2.218-.131-2.693c-.325-.45-1.188-.257-1.969-.325.263-.725 1.644-1.32 2.431-1.182.45-1.568 3.72-2.756 4.463-2.943-.2-.194-.663-1.12-1.125-1.444.844-.338 1.969-.063 3.15.45 1.313-.194 3.4.656 4.325 1.444.381 0 .063-1.444.063-2.032 0 0 .381.138 1.306 1.769.925 1.65.18 5.125-.4 5.444 0 0 .337 3.081-.388 3.35-.719.262-.719 2.093 1.106 2.162 1.85.063 7.682 4.394 8.263 4.525 0 0 2.169.725 1.044-2.1 0 0 1.506.206 2.956.338 1.444.119 1.644-1.906 1.169-2.3-.444-.4-.707-1.644-.707-1.644-1.912.625-3.737-1.594-2.512-1.769 1.387-.206 4.344-1.9 5.387-2.425 1.063-.525 2.613-.525 1.444-1.318-1.181-.782-7.181-.913-8.225-.257l-.6-3.6c-.144-1.05.706-2.037 2.406-2.431 1.7-.4 3.144-1.713 3.932-3.019 2.75 0 5.762-.262 7.475-1.581 1.687-1.306 1.306-.788 3.918-.65 2.632.137 3.8-1.969 3.8-1.969.4 1.05 1.444 4.2.263 5.369 1.444.406 3.537.537 2.75 9.319.144 2.1-.382 8.006 1.706 8.918-.256 1.313-1.706 2.369-2.95 1.913-3.206 2.681.4 3.994 1.569 4.456-.263 1.638-2.213 2.819-3.6 3.013 1.444 1.837.525 5.318.525 5.318l-1.969-.787c-.05 2.462.075 2.587 3.444 6.062H127.95c-.025-.519.02-.956-.244-1.15-.293.688-.581 1.038-.906 1.15h-.588c-.8-.269-1.58-1.531-1.98-1.737-.645-.331-1.957 1.631-1.957 1.631l-1.644-1.9c-1.369-2.306-4.281 1.269-5.4 2.006h-.15c.094-.725-.219-1.044-.419-1.606-.4.65-1.119 1.181-1.95 1.606h-5.706c.01-.312.01-.606.01-.819 0-.65.125-1.706-1.119-.33a3.634 3.634 0 0 1-2.144 1.15h-1.193m46.959 0c-.45-2.244-.45-5.987 4.918-6.331.263-1.706 1.17-6.425-6.03-3.8-.382-1.569-1.7-6.031 3.28-6.306-.387-2.088-1.175-10.1 3.138-15.338 4.337-5.25-1.825-7.344-3-6.819l.119-.387c1.45-2.631 8.525-6.563 10.094.906.262 1.181.137 5.25.137 5.25 1.831 0 5.106 1.969 6.281 3.675-1.575 1.175-6.543 2.488-8.65 1.963 2.494 1.45 2.232 2.23 2.232 4.593 0 2.357-.125 3.275 1.568 3.544-1.568 1.306-3.137 1.838-4.587.125-1.425-1.694-3.131-1.437-3.131.925 0 2.363 2.087 5.506 2.087 5.506 1.969-1.843 5.769-3.018 7.213 1.707.525 1.168-.138 4.98-.138 4.98-1.181-1.318-1.968-2.75-3.275-1.318.094 1.525-.1 4.569.306 7.125H149.52" fill="#e51636"/><path d="M130.581 92.969l4.075-.125-3.012 1.962c-.925 0-2.75-1.043-1.063-1.837m4.644 119.112c-.656-1.55-1.306-3.05-2.019-4.55a71.707 71.707 0 0 0-2.006 4.606l4.025-.056zm5.894 4.981c-.694-.03-1.307-.075-1.925-.062-.613 0-1.257.062-1.875.112-.475-1.293-1-2.612-1.569-3.906-.95-.005-1.863-.005-2.813 0-.768 0-1.525.04-2.293.063a35.415 35.415 0 0 0-1.432 3.962 7.796 7.796 0 0 0-1.043-.087c-.338 0-.669.075-1.094.1 1.05-2.132 4.25-9.007 6.062-13.407.294.03.55.088.844.088.294-.005.538-.063.831-.113 1.938 4.363 4.6 10.144 6.307 13.25m-34.45-18.325c-.663 1.6-1.294 3.213-1.913 4.844.156.081.294.15.45.206 1.813.688 3.12.181 3.77-1.506.78-2.1-.07-2.7-2.307-3.544zm-2.019 5.67l-.181-.05-.281.73c-.75 2.007-1.238 3.394-1.707 5.02a20.83 20.83 0 0 0-1.662-.738c-.675-.25-1.25-.4-1.713-.55.713-1.525 1.282-2.875 2.038-4.894l.925-2.438c.75-2 1.225-3.387 1.706-5.018.432.2.975.475 1.663.731.73.268 1.662.531 3.05 1.05 2.068.8 2.775 1.237 3.33 1.956.632.844.845 1.825.445 2.875-.644 1.738-2.231 2.413-4.444 2.094.569 2.512 1.356 5.156 2.094 7.756-.6-.275-1.2-.562-1.813-.794-.618-.244-1.281-.419-1.912-.625l-1.538-7.106m10.613 2.431c.337-2.112.53-3.575.662-5.256 1.288.213 2.569.513 3.844.731 2.137.332 3.956.6 4.556.644-.075.213-.156.431-.218.775-.063.394-.045.569-.045.856-1.632-.362-4.213-.918-4.863-1.025-.337 1.363-.55 2.72-.781 4.107 1.887.275 3.294.456 4.937.656-.144.419-.194.587-.231.831-.03.206-.02.381-.02.788a66.722 66.722 0 0 0-4.906-.975c-.12.793-.275 1.606-.413 2.418a48.599 48.599 0 0 0-.306 2.37 46.44 46.44 0 0 0 5 .568c-.081.256-.156.444-.219.837a3.47 3.47 0 0 0-.05.832c-.781-.15-1.781-.394-3.781-.713-3.538-.575-4.119-.625-4.613-.669.4-1.65.675-3.087 1.032-5.2l.412-2.575m31.565 4.369c.219 1.025.694 3.319.787 3.644a24.546 24.546 0 0 0 1.907-.325c3.225-.681 4.875-3.031 4.043-6.925-.643-3.075-3.012-4.569-5.98-3.938a18.481 18.481 0 0 0-2.22.563c.057.362.538 2.631.757 3.65l.706 3.331zm-3.812-2.281c-.463-2.106-.8-3.531-1.275-5.163.475-.05 1.056-.125 1.78-.269.957-.2 1.982-.518 3.876-.93 4.906-1.02 8.581-.363 9.581 4.362.881 4.112-1.95 7.55-6 8.4-2.15.462-3.644.675-4.75.906-.706.15-1.281.337-1.75.462-.219-1.668-.481-3.125-.925-5.225l-.537-2.543m21.856-5.981c.48-1.819.537-4.506.656-6.606.313-.1.637-.188.956-.332.325-.137.6-.343.925-.525-.293 1.713-.868 5.794-1.156 8.581.25.563.481 1.157.737 1.732.52 1.156 1.082 2.33 1.85 3.556-.568.225-1.174.437-1.743.681-.55.25-1.107.575-1.657.863-.45-1.15-.8-2.394-1.293-3.488a33.823 33.823 0 0 0-.769-1.594 703.57 703.57 0 0 0-7.475-5.118c.612-.238 1.244-.456 1.844-.738.6-.262 1.156-.575 1.737-.875 1.713 1.294 4.431 3.331 5.35 3.881l.035-.02m25.209-157.805c-.475-.319-.863-.512-1.169-.718-.412.65-.843 1.275-1.443 2.212-.907 1.456-1.97 3.256-2.494 4.063.475.331.862.606 1.456.975 1.588 1.012 3.669.756 4.944-1.244 1.356-2.138.862-3.931-1.294-5.288zm4.619-6.768c-.788-.5-.988-.594-1.356-.769-.77 1.087-1.644 2.337-2.132 3.125-.531.831-.962 1.575-1.469 2.362l1.22.77c1.537.968 3.674.974 4.912-.982.931-1.469.944-3.169-1.175-4.506zm-8.6 1.631c1.612-2.581 2.687-4.381 3.794-6.513.574.425 1.25.957 2.143 1.52 1.538.968 3.381 1.974 4.919 2.95 3.231 2.043 4.769 4.493 3.169 7.005-1.575 2.5-4.969 1.85-6.781 1.02l-.02.05c1.587 1.105 4.156 4.143 2.387 6.918-2.075 3.294-5.969 2.656-9.169.631-1.418-.9-2.525-1.769-3.875-2.612a44.855 44.855 0 0 0-2.8-1.613c1.45-1.919 2.613-3.656 4.244-6.237L186.093 40M76.075 230.706a378.14 378.14 0 0 0 3.806-6.35 7.667 7.667 0 0 0-.581-.394c-2.425-1.412-4.412-1.044-5.7 1.163-1.619 2.781-.525 3.825 2.475 5.581zm4.144-7.5l.25.15.556-.975c1.537-2.625 2.525-4.456 3.569-6.625.587.4 1.281.925 2.187 1.431.913.538 1.706.907 2.331 1.213-1.38 1.975-2.487 3.744-4.012 6.381l-1.856 3.169c-1.544 2.65-2.544 4.494-3.575 6.631-.582-.38-1.288-.894-2.194-1.419-.988-.587-2.25-1.15-4.125-2.243-2.769-1.625-3.663-2.444-4.288-3.6-.693-1.307-.787-2.75.025-4.132 1.338-2.275 3.713-2.83 6.788-1.825-.219-3.68-.756-7.58-1.219-11.412.8.537 1.588 1.087 2.419 1.563.825.481 1.719.9 2.569 1.362l.575 10.331m-23.956-21.318c-.938 2.212-1.844 4.356-2.644 6.593a100.442 100.442 0 0 0 6.731-2.418l-4.087-4.175zm-.788-11.088c.663.775 1.244 1.463 1.862 2.113.625.63 1.326 1.237 2 1.837a99.194 99.194 0 0 0-2.443 5.488c.937 1 1.862 1.987 2.812 2.95.788.806 1.569 1.568 2.369 2.343a48.806 48.806 0 0 0 5.506-2.362c.325.4.6.8.956 1.162.35.37.757.657 1.213 1.044-3.244 1.006-13.531 4.388-19.887 6.781-.244-.337-.463-.662-.75-.956-.294-.306-.62-.519-.957-.769 2.538-6.306 5.844-14.781 7.319-19.631m-20.669 1.419a8.892 8.892 0 0 0-.568-1.325 8.658 8.658 0 0 0-.8-1.194c1.6-6.112 3.18-12.181 4.737-18.375-3.8 2.069-10.306 5.613-11.256 6.406a8.78 8.78 0 0 0-.569-1.337 9.4 9.4 0 0 0-.806-1.188c7.187-3.356 10.369-5.087 16.725-8.537.137.419.275.806.487 1.206.232.381.475.719.725 1.019a343.488 343.488 0 0 0-4.937 18.594c1.831-.92 3.812-2.013 5.581-2.994 3.844-2.075 5.125-2.888 5.956-3.456.181.475.381.962.613 1.38.218.426.525.838.819 1.22-.775.237-7.157 3.18-12.032 5.843-2.15 1.169-3.55 2.094-4.675 2.738m189.55-28.344c2.45-6.912 7.581-10.681 12.819-8.831 6.519 2.3 7.856 8.85 5.35 15.918-1.094 3.038-2.381 4.882-4.119 6.707-.756-.644-1.512-1.275-2.325-1.769l.15-.432c1.988-.718 3.707-2.275 4.682-5.006 1.318-3.737.045-8.525-5.344-10.431-4.088-1.438-8.088 0-9.731 4.637 0 0-1.357 2.313.444 7.113l-2.782-.05s-.694-4.406.857-7.856M24.9 99.694a329.52 329.52 0 0 0 7.044 2.281c.093-.237.187-.444.25-.656.831-2.694 0-4.544-2.432-5.294-3.075-.944-3.837.356-4.862 3.669zm8.244 2.35l-.094.268 1.082.332c2.906.894 4.937 1.45 7.275 1.969-.263.662-.6 1.456-.907 2.462-.306 1.013-.481 1.856-.631 2.55-2.231-.887-4.213-1.569-7.125-2.462l-3.538-1.1c-2.906-.894-4.918-1.45-7.275-1.97.263-.662.594-1.45.907-2.462.325-1.1.6-2.443 1.231-4.518.95-3.088 1.525-4.144 2.513-5.007 1.106-.981 2.493-1.393 4.024-.925 2.525.775 3.62 2.975 3.338 6.2 3.537-1.056 7.206-2.456 10.831-3.775-.343.9-.694 1.794-.987 2.7-.275.919-.488 1.894-.707 2.825l-9.937 2.913m9.168-33.175c-1.675-.275-3.012.343-4.075 1.987-1.062 1.638-.83 3.406.257 4.106 3.375 2.188 7.8-6.512 12.987-3.162 3.075 1.962 3.338 6.175.582 10.431-1.244 1.925-2.77 3.231-3.782 3.688-.83-1.025-1.475-1.807-2.4-2.65l.338-.519c1.506.562 3.444.075 4.862-2.1 1.344-2.094.97-3.806-.312-4.644-3.444-2.219-7.7 6.356-12.888 3.013-3.15-2.038-3.062-5.994-.98-9.194 1.23-1.925 2.6-3.094 3.95-3.669.5.775.924 1.325 1.705 2.313l-.244.4m47.6-34.119c-1.087-2.844-1.906-4.781-2.93-6.944 1.768-.656 3.587-1.231 5.35-1.906 2.924-1.113 5.4-2.125 6.168-2.506.075.325.119.65.3 1.1.206.543.356.75.556 1.106-2.319.744-5.962 1.931-6.856 2.275.569 1.912 1.262 3.737 1.987 5.594a278.318 278.318 0 0 0 6.688-2.782c.093.62.162.863.287 1.207.106.269.25.475.544.981a99.17 99.17 0 0 0-6.844 2.35l.488 1.294c1.094 2.85 1.912 4.781 2.95 6.956-.688.2-1.519.431-2.5.8-.988.381-1.756.769-2.394 1.069-.669-2.3-1.375-4.288-2.469-7.144l-1.325-3.45m27.625-14.256c-4.287.806-6.106 4.968-5.243 9.581 1.062 5.706 4.494 7.112 8 6.45 3.769-.694 6.55-4 5.456-9.838-.85-4.637-4.169-6.956-8.213-6.193zm-.18-1.538c6.624-1.25 12.443.875 13.643 7.338 1 5.306-3.187 10.55-10.181 11.856-6.6 1.237-12.463-.656-13.719-7.363-.975-5.268 2.981-10.48 10.256-11.83m31.438 1.649c-4.344-.387-7.219 3.119-7.638 7.788-.512 5.768 2.406 8.056 5.963 8.368 3.812.344 7.393-2.056 7.918-7.975.432-4.68-2.143-7.818-6.243-8.18zm.23-1.544c6.738.613 11.75 4.238 11.176 10.77-.488 5.374-5.919 9.28-13.006 8.637-6.688-.6-11.832-4.019-11.225-10.794.48-5.344 5.687-9.269 13.056-8.613m20.1 9.919c.35-.987.687-1.906.725-2.294-1.169-.425-3.75-1.18-5.613-1.643.232-.357.413-.688.55-1.075a5.03 5.03 0 0 0 .263-1.188c2.694 1.063 4.031 1.6 7.756 2.938 3.719 1.343 5.075 1.775 7.656 2.618-.218.35-.418.682-.556 1.075a5.22 5.22 0 0 0-.256 1.175c-1.556-.756-4.019-1.812-5.219-2.25-.18.338-.518 1.263-.856 2.232l-2.306 6.412c-1.044 2.875-1.688 4.875-2.313 7.2-.643-.294-1.43-.662-2.418-1.019-.994-.35-1.825-.568-2.5-.75.98-2.193 1.75-4.15 2.78-7.025l2.307-6.406m41.962 37.207c.988-2.176 1.95-4.294 2.813-6.488a94.297 94.297 0 0 0-6.781 2.212l3.968 4.276zm.488 11.112c-.65-.787-1.194-1.5-1.813-2.156-.6-.657-1.293-1.282-1.937-1.894.894-1.756 1.787-3.575 2.587-5.425-.912-1.019-1.8-2.019-2.743-3.031-.75-.813-1.513-1.588-2.288-2.388a46.06 46.06 0 0 0-5.556 2.207c-.319-.42-.581-.82-.919-1.194-.356-.382-.737-.675-1.187-1.075 3.28-.919 13.625-4.007 20.025-6.232.25.344.45.682.737.988.275.3.6.525.913.794-2.694 6.225-6.207 14.6-7.819 19.406m13.156.888c2.675-1.426 4.5-2.476 6.519-3.763.281.65.619 1.444 1.106 2.375.513.938.969 1.656 1.357 2.25-2.2.956-4.075 1.887-6.77 3.319l-3.256 1.737a268.37 268.37 0 0 0-4.818 2.638 66.378 66.378 0 0 0 3.731 6.3c-.363.125-.637.194-1.144.468a4.397 4.397 0 0 0-.968.656c-.513-1.025-1.126-2.406-2.5-5-2.444-4.593-2.907-5.318-3.288-5.918 2.2-.957 4.075-1.882 6.756-3.313l3.275-1.75m9.319 20.057c2.95-.85 4.937-1.5 7.181-2.344.144.681.307 1.537.6 2.55.294 1.006.6 1.812.863 2.475-2.356.481-4.4 1.006-7.325 1.856l-3.563 1.019a359.024 359.024 0 0 0-5.262 1.6 73.572 73.572 0 0 0 2.369 6.919c-.4.045-.676.056-1.213.212-.556.156-.8.306-1.094.456-.294-1.119-.6-2.587-1.425-5.406-1.437-4.994-1.75-5.794-2.006-6.456 2.362-.475 4.387-1.007 7.319-1.857l3.556-1.025m-5.938 83.613c2.632 1.507 4.488 2.5 6.663 3.544-.406.581-.906 1.269-1.431 2.194-.525.919-.882 1.694-1.188 2.337-1.969-1.356-3.769-2.475-6.412-3.987l-3.182-1.863c-1.756-.993-3.556-2-4.8-2.675a72.208 72.208 0 0 0-3.325 6.506c-.306-.243-.506-.437-1-.706-.493-.306-.768-.38-1.075-.487.588-.982 1.432-2.232 2.894-4.775 2.594-4.513 2.95-5.3 3.244-5.932 1.987 1.357 3.769 2.47 6.406 3.982l3.206 1.862m-16.118 16.506c2.168 1.988 3.2 3.025 4.656 4.344 2.125 1.95 3.513 3.131 4.219 3.7a27.258 27.258 0 0 0-1.875 1.831 30.743 30.743 0 0 0-1.657 2.025c-2.33-2.693-4.393-4.63-6.712-6.762-4.906-4.481-7.212-3.569-10.012-.506-3.444 3.768-.206 7.2 3.518 10.625 1.85 1.687 3.75 3.281 5.694 4.856-.431.356-.831.712-1.181 1.125-.381.387-.681.8-.988 1.262-1.062-1.23-3.768-4.025-7.244-7.2-4.662-4.268-4.412-8.4-.23-12.968 3.674-4.032 8.043-5.794 11.812-2.332M187.669 222.1c.487-.318.825-.544 1.143-.762-.412-.644-.78-1.307-1.368-2.244-.919-1.463-2.088-3.2-2.594-4-.5.287-.919.512-1.525.881-1.588 1.006-2.263 2.994-1 4.994 1.35 2.156 3.181 2.481 5.344 1.131zm4.112 7.069c.788-.481.957-.631 1.282-.888-.657-1.156-1.4-2.493-1.907-3.275-.525-.825-1-1.55-1.512-2.325l-1.206.75c-1.544.975-2.47 2.907-1.238 4.863.919 1.469 2.444 2.231 4.581.875zm2.25-8.463c1.613 2.575 2.782 4.325 4.225 6.244-.619.325-1.4.725-2.287 1.275-1.544.975-3.244 2.206-4.788 3.169-3.244 2.019-6.137 2.362-7.706-.15-1.581-2.525.481-5.294 2.019-6.563l-.03-.05c-1.694.969-5.556 1.969-7.306-.812-2.063-3.306.187-6.538 3.4-8.556 1.43-.913 2.687-1.532 4.043-2.376a49.921 49.921 0 0 0 2.644-1.825c1.125 2.132 2.188 3.925 3.819 6.507l1.969 3.137" fill="#1b458f"/><path d="M114.056 98.325c.532-.281 1.331-.931 2.325-.513.988.407 4.157 2.813 4.157 2.813-.738.412-1.107 1.45-3.813-.263l-2.669-2.037" fill="#e51636"/><path d="M79.412 166.038c12.363 14.956 31.763 24.575 53.57 24.575 21.118 0 40.5-9.888 52.912-24.013M80.256 87.938c12.4-14.363 31.419-23.557 52.725-23.557 20.656 0 39.65 9.444 52.081 23.082m-12.15 72.975c2.644-10.075 4.12-21.307 4.12-33.157 0-12.087-1.538-23.537-4.288-33.769m-79.832.04c-2.75 10.22-4.287 21.657-4.287 33.732 0 11.719 1.444 22.837 4.031 32.825m80.394-64.95c-.063-.082-.138-.163-.219-.256-9.55-11.113-23.887-18.188-39.925-18.188-15.919 0-30.162 6.975-39.712 17.938a20.89 20.89 0 0 1-.488.562c-.112.125-.206.25-.312.381m-.231 63.438c.175.206.35.406.518.612 9.557 11.313 24.02 18.519 40.225 18.519 16.194 0 30.65-7.187 40.207-18.487.137-.181.306-.37.462-.557" fill="none" stroke="#fff" stroke-width="4.45"/><path d="M21.962 144.288c-1.324 1.643-1.987 3.868-1.412 6.712.781 3.875 4.35 7.319 9.95 6.181 4.231-.868 6.875-4.306 5.887-9.125-.212-1.056-.768-2.868-1.162-3.312-.45 0-1.113.125-1.881.287-2.882.588-4.044 1.025-4.538 1.157-.03-.42-.094-1.07-.337-2.35-.307-1.494-.525-2.113-.663-2.507.6.045 2.832-.312 4.538-.656 1.125-.231 2.531-.55 2.919-.694 1.218 2.582 2.312 5.363 2.868 8.119 1.444 7.188-.987 13.069-6.431 14.181-6.781 1.388-11.306-3.531-12.781-10.881-.644-3.162-.494-5.412.062-7.875.982.156 1.95.325 2.907.325l.075.438M24.9 129.1c-3.012-.356-5.106-.544-7.506-.644.25-1.868.587-3.756.8-5.625.368-3.106.643-5.781.65-6.637.33.1.643.206 1.131.256.556.062.819.04 1.219.025-.42 2.394-1.063 6.162-1.169 7.125 1.95.387 3.894.612 5.875.856.275-2.769.463-4.8.631-7.231.619.212.844.275 1.2.312.3.035.556 0 1.138-.03a93.716 93.716 0 0 0-1.106 7.169c1.137.132 2.293.307 3.443.438a60.53 60.53 0 0 0 3.4.312c.294-2.387.463-4.837.506-7.3.37.1.65.206 1.2.269.57.063.844.035 1.188.01-.168 1.125-.45 2.606-.8 5.525-.6 5.175-.631 6.031-.663 6.744-2.356-.481-4.43-.781-7.443-1.144l-3.694-.43" fill="#1b458f"/></svg>