<svg xmlns="http://www.w3.org/2000/svg" viewBox="0 0 956.7 418.1"><path d="M880.3 286h-6.5v4.5h6.4c1.6-1.4 1.4-3.6.1-4.5zM718.1 227.9h-37.5v38.6h38.7c22.6 1.8 29.7-37.3-1.2-38.6z"/><path d="M877 278c-7.9 0-14.1 5.7-14.1 14.8 0 7.7 6.1 13.8 14.6 13.8 10 0 14.3-8.5 14.3-14.4-.1-5.6-4.3-14.2-14.8-14.2zm8.1 17.2v7.4h-4.4v-5.2s-.3-2.5-2.8-2.6h-4.1v7.8h-4.3V282H880c6.6 0 7.4 9.3 2.7 10 2.4 1.3 2.4 3.2 2.4 3.2z"/><path d="M882.7 35.4H74c-21.3 0-38.5 17.3-38.5 38.6v270.2c0 21.3 17.2 38.5 38.5 38.5h808.8c21.3 0 38.5-17.3 38.5-38.5V74c0-21.3-17.3-38.6-38.6-38.6zM209.6 308.8l-55.8-80.2v80.2h-43.4v-120h86.1c21.4 0 23.8-31.5.6-36.8h-108v-41h109.8c39.8 3 57.9 33.8 57.7 60-.3 28.8-24.9 55.3-50.5 54.6l57 83.2h-53.5zm152.1 0h-44v-82L247.6 111h50.5l41.7 67.8L383 111h51.1l-72.4 115.2v82.6zm152.2 5.8c-64.8.1-104-55.8-104.2-104.2-.3-49.6 43.5-102.9 102.9-102.9 64.8 0 104.6 55.7 104 104.4-.6 46.3-37.5 102.6-102.7 102.7zm213.7-5.8h-91.4V189.4h85.5c20.8-4.2 11.2-34.5-.6-35.1h-98.6v-43.4h90.8c77.9 4.8 70.8 82.6 48.8 93.9 31.5 16.6 33.3 94.4-34.5 104zm118.3-.1h-45.2V110.9h45.2v197.8zm31.6 1.5c-10.7 0-18.3-7.7-18.3-17.3 0-11.3 7.8-18.5 17.6-18.5 13.1 0 18.5 10.7 18.5 17.8 0 7.4-5.3 18-17.8 18z"/><path d="M512.6 153.2c-33.4 0-58 30-57.9 57.9.1 27.2 22.1 58.7 58.6 58.6 36.7 0 57.4-31.7 57.8-57.8.3-27.3-22.1-58.7-58.5-58.7z"/></svg>